<mxfile host="app.diagrams.net" agent="Mozilla/5.0 (Windows NT 10.0; Win64; x64) AppleWebKit/537.36 (KHTML, like Gecko) Chrome/136.0.0.0 Safari/537.36" version="27.0.9">
  <diagram name="第 1 页" id="rCIuN_Hqx_65PxFN7Cu_">
    <mxGraphModel dx="2480" dy="916" grid="1" gridSize="10" guides="1" tooltips="1" connect="1" arrows="1" fold="1" page="1" pageScale="1" pageWidth="827" pageHeight="1169" math="0" shadow="0">
      <root>
        <mxCell id="0" />
        <mxCell id="1" parent="0" />
        <mxCell id="siom4zf2kln1uITAZIh3-641" value="" style="endArrow=none;html=1;rounded=0;strokeWidth=3;fillColor=#d5e8d4;strokeColor=#82b366;" edge="1" parent="1">
          <mxGeometry width="50" height="50" relative="1" as="geometry">
            <mxPoint y="250" as="sourcePoint" />
            <mxPoint x="40" y="250" as="targetPoint" />
          </mxGeometry>
        </mxCell>
        <mxCell id="siom4zf2kln1uITAZIh3-642" value="&lt;font face=&quot;Comic Sans MS&quot;&gt;0&lt;/font&gt;" style="rounded=1;whiteSpace=wrap;html=1;fillColor=#e1d5e7;strokeColor=#9673a6;" vertex="1" parent="1">
          <mxGeometry y="270" width="20" height="20" as="geometry" />
        </mxCell>
        <mxCell id="siom4zf2kln1uITAZIh3-643" value="" style="endArrow=none;html=1;rounded=0;strokeWidth=3;fillColor=#b1ddf0;strokeColor=light-dark(#cce6ff, #babdc0);" edge="1" parent="1">
          <mxGeometry width="50" height="50" relative="1" as="geometry">
            <mxPoint y="230" as="sourcePoint" />
            <mxPoint x="40" y="230" as="targetPoint" />
          </mxGeometry>
        </mxCell>
        <mxCell id="siom4zf2kln1uITAZIh3-644" value="IB&lt;span style=&quot;color: rgba(0, 0, 0, 0); font-size: 0px; text-align: start; text-wrap-mode: nowrap;&quot;&gt;%3CmxGraphModel%3E%3Croot%3E%3CmxCell%20id%3D%220%22%2F%3E%3CmxCell%20id%3D%221%22%20parent%3D%220%22%2F%3E%3CmxCell%20id%3D%222%22%20value%3D%22%22%20style%3D%22endArrow%3Dnone%3Bhtml%3D1%3Brounded%3D0%3BstrokeWidth%3D3%3BfillColor%3D%23b1ddf0%3BstrokeColor%3Dlight-dark(%23cce6ff%2C%20%23babdc0)%3B%22%20edge%3D%221%22%20parent%3D%221%22%3E%3CmxGeometry%20width%3D%2250%22%20height%3D%2250%22%20relative%3D%221%22%20as%3D%22geometry%22%3E%3CmxPoint%20x%3D%2280%22%20y%3D%22200%22%20as%3D%22sourcePoint%22%2F%3E%3CmxPoint%20x%3D%22720%22%20y%3D%22200%22%20as%3D%22targetPoint%22%2F%3E%3C%2FmxGeometry%3E%3C%2FmxCell%3E%3C%2Froot%3E%3C%2FmxGraphModel%3E&lt;/span&gt;" style="text;html=1;align=center;verticalAlign=middle;whiteSpace=wrap;rounded=0;fontFamily=Comic Sans MS;" vertex="1" parent="1">
          <mxGeometry x="40" y="230" width="80" height="10" as="geometry" />
        </mxCell>
        <mxCell id="siom4zf2kln1uITAZIh3-645" value="NVLinks" style="text;html=1;align=center;verticalAlign=middle;whiteSpace=wrap;rounded=0;fontFamily=Comic Sans MS;" vertex="1" parent="1">
          <mxGeometry x="40" y="250" width="80" height="10" as="geometry" />
        </mxCell>
        <mxCell id="siom4zf2kln1uITAZIh3-646" value="Device" style="text;html=1;align=center;verticalAlign=middle;whiteSpace=wrap;rounded=0;fontFamily=Comic Sans MS;" vertex="1" parent="1">
          <mxGeometry x="40" y="270" width="80" height="10" as="geometry" />
        </mxCell>
        <mxCell id="siom4zf2kln1uITAZIh3-647" value="" style="group" vertex="1" connectable="0" parent="1">
          <mxGeometry x="190" y="469" width="560" height="81" as="geometry" />
        </mxCell>
        <mxCell id="siom4zf2kln1uITAZIh3-648" value="" style="group" vertex="1" connectable="0" parent="siom4zf2kln1uITAZIh3-647">
          <mxGeometry width="80" height="80" as="geometry" />
        </mxCell>
        <mxCell id="siom4zf2kln1uITAZIh3-649" value="" style="endArrow=none;html=1;rounded=0;strokeWidth=5;fillColor=#f8cecc;strokeColor=#FFCCCC;" edge="1" parent="siom4zf2kln1uITAZIh3-648">
          <mxGeometry width="50" height="50" relative="1" as="geometry">
            <mxPoint y="80" as="sourcePoint" />
            <mxPoint x="80" as="targetPoint" />
          </mxGeometry>
        </mxCell>
        <mxCell id="siom4zf2kln1uITAZIh3-650" value="" style="endArrow=none;html=1;rounded=0;strokeWidth=5;fillColor=#f8cecc;strokeColor=#FFCCCC;" edge="1" parent="siom4zf2kln1uITAZIh3-648">
          <mxGeometry width="50" height="50" relative="1" as="geometry">
            <mxPoint as="sourcePoint" />
            <mxPoint x="80" as="targetPoint" />
          </mxGeometry>
        </mxCell>
        <mxCell id="siom4zf2kln1uITAZIh3-651" value="" style="endArrow=none;html=1;rounded=0;strokeWidth=5;fillColor=#f8cecc;strokeColor=#FFCCCC;" edge="1" parent="siom4zf2kln1uITAZIh3-648">
          <mxGeometry width="50" height="50" relative="1" as="geometry">
            <mxPoint x="80" y="80" as="sourcePoint" />
            <mxPoint as="targetPoint" />
          </mxGeometry>
        </mxCell>
        <mxCell id="siom4zf2kln1uITAZIh3-652" value="" style="endArrow=none;html=1;rounded=0;strokeWidth=5;fillColor=#f8cecc;strokeColor=#FFCCCC;" edge="1" parent="siom4zf2kln1uITAZIh3-648">
          <mxGeometry width="50" height="50" relative="1" as="geometry">
            <mxPoint y="80" as="sourcePoint" />
            <mxPoint x="80" y="80" as="targetPoint" />
          </mxGeometry>
        </mxCell>
        <mxCell id="siom4zf2kln1uITAZIh3-653" value="" style="endArrow=none;html=1;rounded=0;strokeWidth=5;fillColor=#f8cecc;strokeColor=#FFCCCC;" edge="1" parent="siom4zf2kln1uITAZIh3-648">
          <mxGeometry width="50" height="50" relative="1" as="geometry">
            <mxPoint x="80" as="sourcePoint" />
            <mxPoint x="80" y="80" as="targetPoint" />
          </mxGeometry>
        </mxCell>
        <mxCell id="siom4zf2kln1uITAZIh3-654" value="" style="endArrow=none;html=1;rounded=0;strokeWidth=5;fillColor=#f8cecc;strokeColor=#FFCCCC;" edge="1" parent="siom4zf2kln1uITAZIh3-648">
          <mxGeometry width="50" height="50" relative="1" as="geometry">
            <mxPoint as="sourcePoint" />
            <mxPoint y="80" as="targetPoint" />
          </mxGeometry>
        </mxCell>
        <mxCell id="siom4zf2kln1uITAZIh3-655" value="" style="group" vertex="1" connectable="0" parent="siom4zf2kln1uITAZIh3-647">
          <mxGeometry x="160" y="1" width="80" height="80" as="geometry" />
        </mxCell>
        <mxCell id="siom4zf2kln1uITAZIh3-656" value="" style="endArrow=none;html=1;rounded=0;strokeWidth=5;fillColor=#f8cecc;strokeColor=#FFCCCC;" edge="1" parent="siom4zf2kln1uITAZIh3-655">
          <mxGeometry width="50" height="50" relative="1" as="geometry">
            <mxPoint y="80" as="sourcePoint" />
            <mxPoint x="80" as="targetPoint" />
          </mxGeometry>
        </mxCell>
        <mxCell id="siom4zf2kln1uITAZIh3-657" value="" style="endArrow=none;html=1;rounded=0;strokeWidth=5;fillColor=#f8cecc;strokeColor=#FFCCCC;" edge="1" parent="siom4zf2kln1uITAZIh3-655">
          <mxGeometry width="50" height="50" relative="1" as="geometry">
            <mxPoint as="sourcePoint" />
            <mxPoint x="80" as="targetPoint" />
          </mxGeometry>
        </mxCell>
        <mxCell id="siom4zf2kln1uITAZIh3-658" value="" style="endArrow=none;html=1;rounded=0;strokeWidth=5;fillColor=#f8cecc;strokeColor=#FFCCCC;" edge="1" parent="siom4zf2kln1uITAZIh3-655">
          <mxGeometry width="50" height="50" relative="1" as="geometry">
            <mxPoint x="80" y="80" as="sourcePoint" />
            <mxPoint as="targetPoint" />
          </mxGeometry>
        </mxCell>
        <mxCell id="siom4zf2kln1uITAZIh3-659" value="" style="endArrow=none;html=1;rounded=0;strokeWidth=5;fillColor=#f8cecc;strokeColor=#FFCCCC;" edge="1" parent="siom4zf2kln1uITAZIh3-655">
          <mxGeometry width="50" height="50" relative="1" as="geometry">
            <mxPoint y="80" as="sourcePoint" />
            <mxPoint x="80" y="80" as="targetPoint" />
          </mxGeometry>
        </mxCell>
        <mxCell id="siom4zf2kln1uITAZIh3-660" value="" style="endArrow=none;html=1;rounded=0;strokeWidth=5;fillColor=#f8cecc;strokeColor=#FFCCCC;" edge="1" parent="siom4zf2kln1uITAZIh3-655">
          <mxGeometry width="50" height="50" relative="1" as="geometry">
            <mxPoint x="80" as="sourcePoint" />
            <mxPoint x="80" y="80" as="targetPoint" />
          </mxGeometry>
        </mxCell>
        <mxCell id="siom4zf2kln1uITAZIh3-661" value="" style="endArrow=none;html=1;rounded=0;strokeWidth=5;fillColor=#f8cecc;strokeColor=#FFCCCC;" edge="1" parent="siom4zf2kln1uITAZIh3-655">
          <mxGeometry width="50" height="50" relative="1" as="geometry">
            <mxPoint as="sourcePoint" />
            <mxPoint y="80" as="targetPoint" />
          </mxGeometry>
        </mxCell>
        <mxCell id="siom4zf2kln1uITAZIh3-662" value="" style="group" vertex="1" connectable="0" parent="siom4zf2kln1uITAZIh3-647">
          <mxGeometry x="320" y="1" width="80" height="80" as="geometry" />
        </mxCell>
        <mxCell id="siom4zf2kln1uITAZIh3-663" value="" style="endArrow=none;html=1;rounded=0;strokeWidth=5;fillColor=#f8cecc;strokeColor=#FFCCCC;" edge="1" parent="siom4zf2kln1uITAZIh3-662">
          <mxGeometry width="50" height="50" relative="1" as="geometry">
            <mxPoint y="80" as="sourcePoint" />
            <mxPoint x="80" as="targetPoint" />
          </mxGeometry>
        </mxCell>
        <mxCell id="siom4zf2kln1uITAZIh3-664" value="" style="endArrow=none;html=1;rounded=0;strokeWidth=5;fillColor=#f8cecc;strokeColor=#FFCCCC;" edge="1" parent="siom4zf2kln1uITAZIh3-662">
          <mxGeometry width="50" height="50" relative="1" as="geometry">
            <mxPoint as="sourcePoint" />
            <mxPoint x="80" as="targetPoint" />
          </mxGeometry>
        </mxCell>
        <mxCell id="siom4zf2kln1uITAZIh3-665" value="" style="endArrow=none;html=1;rounded=0;strokeWidth=5;fillColor=#f8cecc;strokeColor=#FFCCCC;" edge="1" parent="siom4zf2kln1uITAZIh3-662">
          <mxGeometry width="50" height="50" relative="1" as="geometry">
            <mxPoint x="80" y="80" as="sourcePoint" />
            <mxPoint as="targetPoint" />
          </mxGeometry>
        </mxCell>
        <mxCell id="siom4zf2kln1uITAZIh3-666" value="" style="endArrow=none;html=1;rounded=0;strokeWidth=5;fillColor=#f8cecc;strokeColor=#FFCCCC;" edge="1" parent="siom4zf2kln1uITAZIh3-662">
          <mxGeometry width="50" height="50" relative="1" as="geometry">
            <mxPoint y="80" as="sourcePoint" />
            <mxPoint x="80" y="80" as="targetPoint" />
          </mxGeometry>
        </mxCell>
        <mxCell id="siom4zf2kln1uITAZIh3-667" value="" style="endArrow=none;html=1;rounded=0;strokeWidth=5;fillColor=#f8cecc;strokeColor=#FFCCCC;" edge="1" parent="siom4zf2kln1uITAZIh3-662">
          <mxGeometry width="50" height="50" relative="1" as="geometry">
            <mxPoint x="80" as="sourcePoint" />
            <mxPoint x="80" y="80" as="targetPoint" />
          </mxGeometry>
        </mxCell>
        <mxCell id="siom4zf2kln1uITAZIh3-668" value="" style="endArrow=none;html=1;rounded=0;strokeWidth=5;fillColor=#f8cecc;strokeColor=#FFCCCC;" edge="1" parent="siom4zf2kln1uITAZIh3-662">
          <mxGeometry width="50" height="50" relative="1" as="geometry">
            <mxPoint as="sourcePoint" />
            <mxPoint y="80" as="targetPoint" />
          </mxGeometry>
        </mxCell>
        <mxCell id="siom4zf2kln1uITAZIh3-669" value="" style="group" vertex="1" connectable="0" parent="siom4zf2kln1uITAZIh3-647">
          <mxGeometry x="480" y="1" width="80" height="80" as="geometry" />
        </mxCell>
        <mxCell id="siom4zf2kln1uITAZIh3-670" value="" style="endArrow=none;html=1;rounded=0;strokeWidth=5;fillColor=#f8cecc;strokeColor=#FFCCCC;" edge="1" parent="siom4zf2kln1uITAZIh3-669">
          <mxGeometry width="50" height="50" relative="1" as="geometry">
            <mxPoint y="80" as="sourcePoint" />
            <mxPoint x="80" as="targetPoint" />
          </mxGeometry>
        </mxCell>
        <mxCell id="siom4zf2kln1uITAZIh3-671" value="" style="endArrow=none;html=1;rounded=0;strokeWidth=5;fillColor=#f8cecc;strokeColor=#FFCCCC;" edge="1" parent="siom4zf2kln1uITAZIh3-669">
          <mxGeometry width="50" height="50" relative="1" as="geometry">
            <mxPoint as="sourcePoint" />
            <mxPoint x="80" as="targetPoint" />
          </mxGeometry>
        </mxCell>
        <mxCell id="siom4zf2kln1uITAZIh3-672" value="" style="endArrow=none;html=1;rounded=0;strokeWidth=5;fillColor=#f8cecc;strokeColor=#FFCCCC;" edge="1" parent="siom4zf2kln1uITAZIh3-669">
          <mxGeometry width="50" height="50" relative="1" as="geometry">
            <mxPoint x="80" y="80" as="sourcePoint" />
            <mxPoint as="targetPoint" />
          </mxGeometry>
        </mxCell>
        <mxCell id="siom4zf2kln1uITAZIh3-673" value="" style="endArrow=none;html=1;rounded=0;strokeWidth=5;fillColor=#f8cecc;strokeColor=#FFCCCC;" edge="1" parent="siom4zf2kln1uITAZIh3-669">
          <mxGeometry width="50" height="50" relative="1" as="geometry">
            <mxPoint y="80" as="sourcePoint" />
            <mxPoint x="80" y="80" as="targetPoint" />
          </mxGeometry>
        </mxCell>
        <mxCell id="siom4zf2kln1uITAZIh3-674" value="" style="endArrow=none;html=1;rounded=0;strokeWidth=5;fillColor=#f8cecc;strokeColor=#FFCCCC;" edge="1" parent="siom4zf2kln1uITAZIh3-669">
          <mxGeometry width="50" height="50" relative="1" as="geometry">
            <mxPoint x="80" as="sourcePoint" />
            <mxPoint x="80" y="80" as="targetPoint" />
          </mxGeometry>
        </mxCell>
        <mxCell id="siom4zf2kln1uITAZIh3-675" value="" style="endArrow=none;html=1;rounded=0;strokeWidth=5;fillColor=#f8cecc;strokeColor=#FFCCCC;" edge="1" parent="siom4zf2kln1uITAZIh3-669">
          <mxGeometry width="50" height="50" relative="1" as="geometry">
            <mxPoint as="sourcePoint" />
            <mxPoint y="80" as="targetPoint" />
          </mxGeometry>
        </mxCell>
        <mxCell id="siom4zf2kln1uITAZIh3-676" value="1" style="rounded=1;whiteSpace=wrap;html=1;fillColor=#e1d5e7;strokeColor=#9673a6;fontFamily=Comic Sans MS;sketch=1;curveFitting=1;jiggle=2;fontStyle=1" vertex="1" parent="1">
          <mxGeometry x="180" y="550" width="20" height="20" as="geometry" />
        </mxCell>
        <mxCell id="siom4zf2kln1uITAZIh3-677" value="2" style="rounded=1;whiteSpace=wrap;html=1;fillColor=#e1d5e7;strokeColor=#9673a6;fontFamily=Comic Sans MS;sketch=1;curveFitting=1;jiggle=2;fontStyle=1" vertex="1" parent="1">
          <mxGeometry x="260" y="550" width="20" height="20" as="geometry" />
        </mxCell>
        <mxCell id="siom4zf2kln1uITAZIh3-678" value="&lt;font face=&quot;Comic Sans MS&quot;&gt;0&lt;/font&gt;" style="rounded=1;whiteSpace=wrap;html=1;fillColor=#e1d5e7;strokeColor=#9673a6;sketch=1;curveFitting=1;jiggle=2;fontStyle=1" vertex="1" parent="1">
          <mxGeometry x="180" y="450" width="20" height="20" as="geometry" />
        </mxCell>
        <mxCell id="siom4zf2kln1uITAZIh3-679" value="3" style="rounded=1;whiteSpace=wrap;html=1;fillColor=#e1d5e7;strokeColor=#9673a6;fontFamily=Comic Sans MS;sketch=1;curveFitting=1;jiggle=2;fontStyle=1" vertex="1" parent="1">
          <mxGeometry x="260" y="450" width="20" height="20" as="geometry" />
        </mxCell>
        <mxCell id="siom4zf2kln1uITAZIh3-680" value="1" style="rounded=1;whiteSpace=wrap;html=1;fillColor=#e1d5e7;strokeColor=#9673a6;fontFamily=Comic Sans MS;sketch=1;curveFitting=1;jiggle=2;fontStyle=1" vertex="1" parent="1">
          <mxGeometry x="340" y="550" width="20" height="20" as="geometry" />
        </mxCell>
        <mxCell id="siom4zf2kln1uITAZIh3-681" value="2" style="rounded=1;whiteSpace=wrap;html=1;fillColor=#e1d5e7;strokeColor=#9673a6;fontFamily=Comic Sans MS;sketch=1;curveFitting=1;jiggle=2;fontStyle=1" vertex="1" parent="1">
          <mxGeometry x="420" y="550" width="20" height="20" as="geometry" />
        </mxCell>
        <mxCell id="siom4zf2kln1uITAZIh3-682" value="&lt;font face=&quot;Comic Sans MS&quot;&gt;0&lt;/font&gt;" style="rounded=1;whiteSpace=wrap;html=1;fillColor=#e1d5e7;strokeColor=#9673a6;sketch=1;curveFitting=1;jiggle=2;fontStyle=1" vertex="1" parent="1">
          <mxGeometry x="340" y="450" width="20" height="20" as="geometry" />
        </mxCell>
        <mxCell id="siom4zf2kln1uITAZIh3-683" value="3" style="rounded=1;whiteSpace=wrap;html=1;fillColor=#e1d5e7;strokeColor=#9673a6;fontFamily=Comic Sans MS;sketch=1;curveFitting=1;jiggle=2;fontStyle=1" vertex="1" parent="1">
          <mxGeometry x="420" y="450" width="20" height="20" as="geometry" />
        </mxCell>
        <mxCell id="siom4zf2kln1uITAZIh3-684" value="1" style="rounded=1;whiteSpace=wrap;html=1;fillColor=#e1d5e7;strokeColor=#9673a6;fontFamily=Comic Sans MS;sketch=1;curveFitting=1;jiggle=2;fontStyle=1" vertex="1" parent="1">
          <mxGeometry x="500" y="550" width="20" height="20" as="geometry" />
        </mxCell>
        <mxCell id="siom4zf2kln1uITAZIh3-685" value="2" style="rounded=1;whiteSpace=wrap;html=1;fillColor=#e1d5e7;strokeColor=#9673a6;fontFamily=Comic Sans MS;sketch=1;curveFitting=1;jiggle=2;fontStyle=1" vertex="1" parent="1">
          <mxGeometry x="580" y="550" width="20" height="20" as="geometry" />
        </mxCell>
        <mxCell id="siom4zf2kln1uITAZIh3-686" value="&lt;font face=&quot;Comic Sans MS&quot;&gt;0&lt;/font&gt;" style="rounded=1;whiteSpace=wrap;html=1;fillColor=#e1d5e7;strokeColor=#9673a6;sketch=1;curveFitting=1;jiggle=2;fontStyle=1" vertex="1" parent="1">
          <mxGeometry x="500" y="450" width="20" height="20" as="geometry" />
        </mxCell>
        <mxCell id="siom4zf2kln1uITAZIh3-687" value="3" style="rounded=1;whiteSpace=wrap;html=1;fillColor=#e1d5e7;strokeColor=#9673a6;fontFamily=Comic Sans MS;sketch=1;curveFitting=1;jiggle=2;fontStyle=1" vertex="1" parent="1">
          <mxGeometry x="580" y="450" width="20" height="20" as="geometry" />
        </mxCell>
        <mxCell id="siom4zf2kln1uITAZIh3-688" value="1" style="rounded=1;whiteSpace=wrap;html=1;fillColor=#e1d5e7;strokeColor=#9673a6;fontFamily=Comic Sans MS;sketch=1;curveFitting=1;jiggle=2;fontStyle=1" vertex="1" parent="1">
          <mxGeometry x="660" y="550" width="20" height="20" as="geometry" />
        </mxCell>
        <mxCell id="siom4zf2kln1uITAZIh3-689" value="2" style="rounded=1;whiteSpace=wrap;html=1;fillColor=#e1d5e7;strokeColor=#9673a6;fontFamily=Comic Sans MS;sketch=1;curveFitting=1;jiggle=2;fontStyle=1" vertex="1" parent="1">
          <mxGeometry x="740" y="550" width="20" height="20" as="geometry" />
        </mxCell>
        <mxCell id="siom4zf2kln1uITAZIh3-690" value="&lt;font face=&quot;Comic Sans MS&quot;&gt;0&lt;/font&gt;" style="rounded=1;whiteSpace=wrap;html=1;fillColor=#e1d5e7;strokeColor=#9673a6;sketch=1;curveFitting=1;jiggle=2;fontStyle=1" vertex="1" parent="1">
          <mxGeometry x="660" y="450" width="20" height="20" as="geometry" />
        </mxCell>
        <mxCell id="siom4zf2kln1uITAZIh3-691" value="3" style="rounded=1;whiteSpace=wrap;html=1;fillColor=#e1d5e7;strokeColor=#9673a6;fontFamily=Comic Sans MS;sketch=1;curveFitting=1;jiggle=2;fontStyle=1" vertex="1" parent="1">
          <mxGeometry x="740" y="450" width="20" height="20" as="geometry" />
        </mxCell>
        <mxCell id="siom4zf2kln1uITAZIh3-692" value="" style="endArrow=none;html=1;rounded=0;strokeWidth=9;fillColor=#b1ddf0;strokeColor=light-dark(#cce6ff, #babdc0);" edge="1" parent="1">
          <mxGeometry width="50" height="50" relative="1" as="geometry">
            <mxPoint x="150" y="430" as="sourcePoint" />
            <mxPoint x="790" y="430" as="targetPoint" />
          </mxGeometry>
        </mxCell>
        <mxCell id="siom4zf2kln1uITAZIh3-693" value="" style="endArrow=none;html=1;rounded=0;strokeWidth=9;fillColor=#b1ddf0;strokeColor=light-dark(#cce6ff, #babdc0);" edge="1" parent="1">
          <mxGeometry width="50" height="50" relative="1" as="geometry">
            <mxPoint x="230" y="510" as="sourcePoint" />
            <mxPoint x="230" y="430" as="targetPoint" />
          </mxGeometry>
        </mxCell>
        <mxCell id="siom4zf2kln1uITAZIh3-694" value="" style="endArrow=none;html=1;rounded=0;strokeWidth=9;fillColor=#b1ddf0;strokeColor=light-dark(#cce6ff, #babdc0);" edge="1" parent="1">
          <mxGeometry width="50" height="50" relative="1" as="geometry">
            <mxPoint x="390" y="510" as="sourcePoint" />
            <mxPoint x="390" y="430" as="targetPoint" />
          </mxGeometry>
        </mxCell>
        <mxCell id="siom4zf2kln1uITAZIh3-695" value="" style="endArrow=none;html=1;rounded=0;fontStyle=0;strokeWidth=9;fillColor=#b1ddf0;strokeColor=light-dark(#cce6ff, #babdc0);" edge="1" parent="1">
          <mxGeometry width="50" height="50" relative="1" as="geometry">
            <mxPoint x="550" y="510" as="sourcePoint" />
            <mxPoint x="550" y="430" as="targetPoint" />
          </mxGeometry>
        </mxCell>
        <mxCell id="siom4zf2kln1uITAZIh3-696" value="" style="endArrow=none;html=1;rounded=0;strokeWidth=9;fillColor=#b1ddf0;strokeColor=light-dark(#cce6ff, #babdc0);" edge="1" parent="1">
          <mxGeometry width="50" height="50" relative="1" as="geometry">
            <mxPoint x="710" y="510" as="sourcePoint" />
            <mxPoint x="710" y="430" as="targetPoint" />
          </mxGeometry>
        </mxCell>
        <mxCell id="siom4zf2kln1uITAZIh3-697" value="" style="endArrow=none;html=1;rounded=0;endFill=0;dashed=1;strokeWidth=2;fillColor=#e51400;strokeColor=light-dark(#f21a37, #ffacac);startFill=0;" edge="1" parent="1">
          <mxGeometry width="50" height="50" relative="1" as="geometry">
            <mxPoint x="710" y="510" as="sourcePoint" />
            <mxPoint x="710" y="430" as="targetPoint" />
          </mxGeometry>
        </mxCell>
        <mxCell id="siom4zf2kln1uITAZIh3-698" value="" style="group" vertex="1" connectable="0" parent="1">
          <mxGeometry x="390" y="430" width="160" height="80" as="geometry" />
        </mxCell>
        <mxCell id="siom4zf2kln1uITAZIh3-699" value="" style="endArrow=none;html=1;rounded=0;endFill=0;dashed=1;strokeWidth=2;fillColor=#e51400;strokeColor=light-dark(#f21a37, #ffacac);startFill=0;startArrow=open;" edge="1" parent="siom4zf2kln1uITAZIh3-698">
          <mxGeometry width="50" height="50" relative="1" as="geometry">
            <mxPoint x="160" as="sourcePoint" />
            <mxPoint as="targetPoint" />
          </mxGeometry>
        </mxCell>
        <mxCell id="siom4zf2kln1uITAZIh3-700" value="" style="endArrow=none;html=1;rounded=0;endFill=0;dashed=1;strokeWidth=2;fillColor=#e51400;strokeColor=light-dark(#f21a37, #ffacac);startFill=0;" edge="1" parent="siom4zf2kln1uITAZIh3-698">
          <mxGeometry width="50" height="50" relative="1" as="geometry">
            <mxPoint y="80" as="sourcePoint" />
            <mxPoint as="targetPoint" />
          </mxGeometry>
        </mxCell>
        <mxCell id="siom4zf2kln1uITAZIh3-701" value="" style="group" vertex="1" connectable="0" parent="1">
          <mxGeometry x="550" y="430" width="160" height="80" as="geometry" />
        </mxCell>
        <mxCell id="siom4zf2kln1uITAZIh3-702" value="" style="endArrow=none;html=1;rounded=0;endFill=0;dashed=1;strokeWidth=2;fillColor=#e51400;strokeColor=light-dark(#f21a37, #ffacac);startFill=0;" edge="1" parent="siom4zf2kln1uITAZIh3-701">
          <mxGeometry width="50" height="50" relative="1" as="geometry">
            <mxPoint y="80" as="sourcePoint" />
            <mxPoint as="targetPoint" />
          </mxGeometry>
        </mxCell>
        <mxCell id="siom4zf2kln1uITAZIh3-703" value="" style="endArrow=none;html=1;rounded=0;endFill=0;dashed=1;strokeWidth=2;fillColor=#e51400;strokeColor=light-dark(#f21a37, #ffacac);startFill=0;startArrow=open;" edge="1" parent="siom4zf2kln1uITAZIh3-701">
          <mxGeometry width="50" height="50" relative="1" as="geometry">
            <mxPoint x="160" as="sourcePoint" />
            <mxPoint as="targetPoint" />
          </mxGeometry>
        </mxCell>
        <mxCell id="siom4zf2kln1uITAZIh3-704" value="" style="endArrow=open;html=1;rounded=0;exitX=0.5;exitY=1;exitDx=0;exitDy=0;endFill=0;dashed=1;strokeWidth=2;fillColor=#e51400;strokeColor=light-dark(#f21a37, #ffacac);startFill=0;startArrow=none;" edge="1" parent="1" source="siom4zf2kln1uITAZIh3-679">
          <mxGeometry width="50" height="50" relative="1" as="geometry">
            <mxPoint x="120" y="540" as="sourcePoint" />
            <mxPoint x="230" y="510" as="targetPoint" />
          </mxGeometry>
        </mxCell>
        <mxCell id="siom4zf2kln1uITAZIh3-705" value="" style="endArrow=open;html=1;rounded=0;exitX=0.5;exitY=1;exitDx=0;exitDy=0;endFill=0;dashed=1;strokeWidth=2;fillColor=#e51400;strokeColor=light-dark(#f21a37, #ffacac);startFill=0;startArrow=open;" edge="1" parent="1">
          <mxGeometry width="50" height="50" relative="1" as="geometry">
            <mxPoint x="430" y="470" as="sourcePoint" />
            <mxPoint x="390" y="510" as="targetPoint" />
          </mxGeometry>
        </mxCell>
        <mxCell id="siom4zf2kln1uITAZIh3-706" value="" style="endArrow=open;html=1;rounded=0;exitX=0.5;exitY=1;exitDx=0;exitDy=0;endFill=0;dashed=1;strokeWidth=2;fillColor=#e51400;strokeColor=light-dark(#f21a37, #ffacac);startFill=0;startArrow=open;" edge="1" parent="1">
          <mxGeometry width="50" height="50" relative="1" as="geometry">
            <mxPoint x="590" y="470" as="sourcePoint" />
            <mxPoint x="550" y="510" as="targetPoint" />
          </mxGeometry>
        </mxCell>
        <mxCell id="siom4zf2kln1uITAZIh3-707" value="" style="endArrow=open;html=1;rounded=0;exitX=0.5;exitY=1;exitDx=0;exitDy=0;endFill=0;dashed=1;strokeWidth=2;fillColor=#e51400;strokeColor=light-dark(#f21a37, #ffacac);startFill=0;startArrow=open;" edge="1" parent="1">
          <mxGeometry width="50" height="50" relative="1" as="geometry">
            <mxPoint x="750" y="470" as="sourcePoint" />
            <mxPoint x="710" y="510" as="targetPoint" />
          </mxGeometry>
        </mxCell>
        <mxCell id="siom4zf2kln1uITAZIh3-708" value="" style="endArrow=none;html=1;rounded=0;endFill=0;dashed=1;strokeWidth=2;fillColor=#e51400;strokeColor=light-dark(#f21a37, #ffacac);startFill=0;startArrow=open;" edge="1" parent="1">
          <mxGeometry width="50" height="50" relative="1" as="geometry">
            <mxPoint x="390" y="430" as="sourcePoint" />
            <mxPoint x="230" y="430" as="targetPoint" />
          </mxGeometry>
        </mxCell>
        <mxCell id="siom4zf2kln1uITAZIh3-709" value="" style="endArrow=none;html=1;rounded=0;endFill=0;dashed=1;strokeWidth=2;fillColor=#e51400;strokeColor=light-dark(#f21a37, #ffacac);startFill=0;" edge="1" parent="1">
          <mxGeometry width="50" height="50" relative="1" as="geometry">
            <mxPoint x="230" y="510" as="sourcePoint" />
            <mxPoint x="230" y="430" as="targetPoint" />
          </mxGeometry>
        </mxCell>
        <mxCell id="siom4zf2kln1uITAZIh3-710" value="" style="group" vertex="1" connectable="0" parent="1">
          <mxGeometry x="190" y="669" width="560" height="81" as="geometry" />
        </mxCell>
        <mxCell id="siom4zf2kln1uITAZIh3-711" value="" style="group" vertex="1" connectable="0" parent="siom4zf2kln1uITAZIh3-710">
          <mxGeometry width="80" height="80" as="geometry" />
        </mxCell>
        <mxCell id="siom4zf2kln1uITAZIh3-712" value="" style="endArrow=none;html=1;rounded=0;strokeWidth=5;fillColor=#f8cecc;strokeColor=#FFCCCC;" edge="1" parent="siom4zf2kln1uITAZIh3-711">
          <mxGeometry width="50" height="50" relative="1" as="geometry">
            <mxPoint y="80" as="sourcePoint" />
            <mxPoint x="80" as="targetPoint" />
          </mxGeometry>
        </mxCell>
        <mxCell id="siom4zf2kln1uITAZIh3-713" value="" style="endArrow=none;html=1;rounded=0;strokeWidth=5;fillColor=#f8cecc;strokeColor=#FFCCCC;" edge="1" parent="siom4zf2kln1uITAZIh3-711">
          <mxGeometry width="50" height="50" relative="1" as="geometry">
            <mxPoint as="sourcePoint" />
            <mxPoint x="80" as="targetPoint" />
          </mxGeometry>
        </mxCell>
        <mxCell id="siom4zf2kln1uITAZIh3-714" value="" style="endArrow=none;html=1;rounded=0;strokeWidth=5;fillColor=#f8cecc;strokeColor=#FFCCCC;" edge="1" parent="siom4zf2kln1uITAZIh3-711">
          <mxGeometry width="50" height="50" relative="1" as="geometry">
            <mxPoint x="80" y="80" as="sourcePoint" />
            <mxPoint as="targetPoint" />
          </mxGeometry>
        </mxCell>
        <mxCell id="siom4zf2kln1uITAZIh3-715" value="" style="endArrow=none;html=1;rounded=0;strokeWidth=5;fillColor=#f8cecc;strokeColor=#FFCCCC;" edge="1" parent="siom4zf2kln1uITAZIh3-711">
          <mxGeometry width="50" height="50" relative="1" as="geometry">
            <mxPoint y="80" as="sourcePoint" />
            <mxPoint x="80" y="80" as="targetPoint" />
          </mxGeometry>
        </mxCell>
        <mxCell id="siom4zf2kln1uITAZIh3-716" value="" style="endArrow=none;html=1;rounded=0;strokeWidth=5;fillColor=#f8cecc;strokeColor=#FFCCCC;" edge="1" parent="siom4zf2kln1uITAZIh3-711">
          <mxGeometry width="50" height="50" relative="1" as="geometry">
            <mxPoint x="80" as="sourcePoint" />
            <mxPoint x="80" y="80" as="targetPoint" />
          </mxGeometry>
        </mxCell>
        <mxCell id="siom4zf2kln1uITAZIh3-717" value="" style="endArrow=none;html=1;rounded=0;strokeWidth=5;fillColor=#f8cecc;strokeColor=#FFCCCC;" edge="1" parent="siom4zf2kln1uITAZIh3-711">
          <mxGeometry width="50" height="50" relative="1" as="geometry">
            <mxPoint as="sourcePoint" />
            <mxPoint y="80" as="targetPoint" />
          </mxGeometry>
        </mxCell>
        <mxCell id="siom4zf2kln1uITAZIh3-718" value="" style="group" vertex="1" connectable="0" parent="siom4zf2kln1uITAZIh3-710">
          <mxGeometry x="160" y="1" width="80" height="80" as="geometry" />
        </mxCell>
        <mxCell id="siom4zf2kln1uITAZIh3-719" value="" style="endArrow=none;html=1;rounded=0;strokeWidth=5;fillColor=#f8cecc;strokeColor=#FFCCCC;" edge="1" parent="siom4zf2kln1uITAZIh3-718">
          <mxGeometry width="50" height="50" relative="1" as="geometry">
            <mxPoint y="80" as="sourcePoint" />
            <mxPoint x="80" as="targetPoint" />
          </mxGeometry>
        </mxCell>
        <mxCell id="siom4zf2kln1uITAZIh3-720" value="" style="endArrow=none;html=1;rounded=0;strokeWidth=5;fillColor=#f8cecc;strokeColor=#FFCCCC;" edge="1" parent="siom4zf2kln1uITAZIh3-718">
          <mxGeometry width="50" height="50" relative="1" as="geometry">
            <mxPoint as="sourcePoint" />
            <mxPoint x="80" as="targetPoint" />
          </mxGeometry>
        </mxCell>
        <mxCell id="siom4zf2kln1uITAZIh3-721" value="" style="endArrow=none;html=1;rounded=0;strokeWidth=5;fillColor=#f8cecc;strokeColor=#FFCCCC;" edge="1" parent="siom4zf2kln1uITAZIh3-718">
          <mxGeometry width="50" height="50" relative="1" as="geometry">
            <mxPoint x="80" y="80" as="sourcePoint" />
            <mxPoint as="targetPoint" />
          </mxGeometry>
        </mxCell>
        <mxCell id="siom4zf2kln1uITAZIh3-722" value="" style="endArrow=none;html=1;rounded=0;strokeWidth=5;fillColor=#f8cecc;strokeColor=#FFCCCC;" edge="1" parent="siom4zf2kln1uITAZIh3-718">
          <mxGeometry width="50" height="50" relative="1" as="geometry">
            <mxPoint y="80" as="sourcePoint" />
            <mxPoint x="80" y="80" as="targetPoint" />
          </mxGeometry>
        </mxCell>
        <mxCell id="siom4zf2kln1uITAZIh3-723" value="" style="endArrow=none;html=1;rounded=0;strokeWidth=5;fillColor=#f8cecc;strokeColor=#FFCCCC;" edge="1" parent="siom4zf2kln1uITAZIh3-718">
          <mxGeometry width="50" height="50" relative="1" as="geometry">
            <mxPoint x="80" as="sourcePoint" />
            <mxPoint x="80" y="80" as="targetPoint" />
          </mxGeometry>
        </mxCell>
        <mxCell id="siom4zf2kln1uITAZIh3-724" value="" style="endArrow=none;html=1;rounded=0;strokeWidth=5;fillColor=#f8cecc;strokeColor=#FFCCCC;" edge="1" parent="siom4zf2kln1uITAZIh3-718">
          <mxGeometry width="50" height="50" relative="1" as="geometry">
            <mxPoint as="sourcePoint" />
            <mxPoint y="80" as="targetPoint" />
          </mxGeometry>
        </mxCell>
        <mxCell id="siom4zf2kln1uITAZIh3-725" value="" style="group" vertex="1" connectable="0" parent="siom4zf2kln1uITAZIh3-718">
          <mxGeometry width="80" height="80" as="geometry" />
        </mxCell>
        <mxCell id="siom4zf2kln1uITAZIh3-726" value="" style="endArrow=open;html=1;rounded=0;exitX=0.5;exitY=1;exitDx=0;exitDy=0;endFill=0;dashed=1;strokeWidth=2;fillColor=#fff2cc;strokeColor=#F21A38;startFill=0;startArrow=none;entryX=0.5;entryY=1;entryDx=0;entryDy=0;gradientColor=#ffd966;" edge="1" parent="siom4zf2kln1uITAZIh3-725">
          <mxGeometry width="50" height="50" relative="1" as="geometry">
            <mxPoint x="80" as="sourcePoint" />
            <mxPoint as="targetPoint" />
          </mxGeometry>
        </mxCell>
        <mxCell id="siom4zf2kln1uITAZIh3-727" value="" style="endArrow=open;html=1;rounded=0;endFill=0;dashed=1;strokeWidth=2;fillColor=#fff2cc;strokeColor=#F21A38;startFill=0;startArrow=none;entryX=0.5;entryY=0;entryDx=0;entryDy=0;gradientColor=#ffd966;" edge="1" parent="siom4zf2kln1uITAZIh3-725">
          <mxGeometry width="50" height="50" relative="1" as="geometry">
            <mxPoint x="79.80000000000001" as="sourcePoint" />
            <mxPoint x="79.80000000000001" y="80" as="targetPoint" />
          </mxGeometry>
        </mxCell>
        <mxCell id="siom4zf2kln1uITAZIh3-728" value="" style="endArrow=open;html=1;rounded=0;endFill=0;dashed=1;strokeWidth=2;fillColor=#fff2cc;strokeColor=#F21A38;startFill=0;startArrow=none;gradientColor=#ffd966;" edge="1" parent="siom4zf2kln1uITAZIh3-725">
          <mxGeometry width="50" height="50" relative="1" as="geometry">
            <mxPoint x="80" as="sourcePoint" />
            <mxPoint y="80" as="targetPoint" />
          </mxGeometry>
        </mxCell>
        <mxCell id="siom4zf2kln1uITAZIh3-729" value="" style="group" vertex="1" connectable="0" parent="siom4zf2kln1uITAZIh3-710">
          <mxGeometry x="320" y="1" width="80" height="80" as="geometry" />
        </mxCell>
        <mxCell id="siom4zf2kln1uITAZIh3-730" value="" style="endArrow=none;html=1;rounded=0;strokeWidth=5;fillColor=#f8cecc;strokeColor=#FFCCCC;" edge="1" parent="siom4zf2kln1uITAZIh3-729">
          <mxGeometry width="50" height="50" relative="1" as="geometry">
            <mxPoint y="80" as="sourcePoint" />
            <mxPoint x="80" as="targetPoint" />
          </mxGeometry>
        </mxCell>
        <mxCell id="siom4zf2kln1uITAZIh3-731" value="" style="endArrow=none;html=1;rounded=0;strokeWidth=5;fillColor=#f8cecc;strokeColor=#FFCCCC;" edge="1" parent="siom4zf2kln1uITAZIh3-729">
          <mxGeometry width="50" height="50" relative="1" as="geometry">
            <mxPoint as="sourcePoint" />
            <mxPoint x="80" as="targetPoint" />
          </mxGeometry>
        </mxCell>
        <mxCell id="siom4zf2kln1uITAZIh3-732" value="" style="endArrow=none;html=1;rounded=0;strokeWidth=5;fillColor=#f8cecc;strokeColor=#FFCCCC;" edge="1" parent="siom4zf2kln1uITAZIh3-729">
          <mxGeometry width="50" height="50" relative="1" as="geometry">
            <mxPoint x="80" y="80" as="sourcePoint" />
            <mxPoint as="targetPoint" />
          </mxGeometry>
        </mxCell>
        <mxCell id="siom4zf2kln1uITAZIh3-733" value="" style="endArrow=none;html=1;rounded=0;strokeWidth=5;fillColor=#f8cecc;strokeColor=#FFCCCC;" edge="1" parent="siom4zf2kln1uITAZIh3-729">
          <mxGeometry width="50" height="50" relative="1" as="geometry">
            <mxPoint y="80" as="sourcePoint" />
            <mxPoint x="80" y="80" as="targetPoint" />
          </mxGeometry>
        </mxCell>
        <mxCell id="siom4zf2kln1uITAZIh3-734" value="" style="endArrow=none;html=1;rounded=0;strokeWidth=5;fillColor=#f8cecc;strokeColor=#FFCCCC;" edge="1" parent="siom4zf2kln1uITAZIh3-729">
          <mxGeometry width="50" height="50" relative="1" as="geometry">
            <mxPoint x="80" as="sourcePoint" />
            <mxPoint x="80" y="80" as="targetPoint" />
          </mxGeometry>
        </mxCell>
        <mxCell id="siom4zf2kln1uITAZIh3-735" value="" style="endArrow=none;html=1;rounded=0;strokeWidth=5;fillColor=#f8cecc;strokeColor=#FFCCCC;" edge="1" parent="siom4zf2kln1uITAZIh3-729">
          <mxGeometry width="50" height="50" relative="1" as="geometry">
            <mxPoint as="sourcePoint" />
            <mxPoint y="80" as="targetPoint" />
          </mxGeometry>
        </mxCell>
        <mxCell id="siom4zf2kln1uITAZIh3-736" value="" style="group" vertex="1" connectable="0" parent="siom4zf2kln1uITAZIh3-729">
          <mxGeometry width="80" height="80" as="geometry" />
        </mxCell>
        <mxCell id="siom4zf2kln1uITAZIh3-737" value="" style="endArrow=open;html=1;rounded=0;exitX=0.5;exitY=1;exitDx=0;exitDy=0;endFill=0;dashed=1;strokeWidth=2;fillColor=#fff2cc;strokeColor=#F21A38;startFill=0;startArrow=none;entryX=0.5;entryY=1;entryDx=0;entryDy=0;gradientColor=#ffd966;" edge="1" parent="siom4zf2kln1uITAZIh3-736">
          <mxGeometry width="50" height="50" relative="1" as="geometry">
            <mxPoint x="80" as="sourcePoint" />
            <mxPoint as="targetPoint" />
          </mxGeometry>
        </mxCell>
        <mxCell id="siom4zf2kln1uITAZIh3-738" value="" style="endArrow=open;html=1;rounded=0;endFill=0;dashed=1;strokeWidth=2;fillColor=#fff2cc;strokeColor=#F21A38;startFill=0;startArrow=none;gradientColor=#ffd966;" edge="1" parent="siom4zf2kln1uITAZIh3-736">
          <mxGeometry width="50" height="50" relative="1" as="geometry">
            <mxPoint x="80" as="sourcePoint" />
            <mxPoint y="80" as="targetPoint" />
          </mxGeometry>
        </mxCell>
        <mxCell id="siom4zf2kln1uITAZIh3-739" value="" style="endArrow=open;html=1;rounded=0;endFill=0;dashed=1;strokeWidth=2;fillColor=#fff2cc;strokeColor=#F21A38;startFill=0;startArrow=none;entryX=0.5;entryY=0;entryDx=0;entryDy=0;gradientColor=#ffd966;" edge="1" parent="siom4zf2kln1uITAZIh3-736">
          <mxGeometry width="50" height="50" relative="1" as="geometry">
            <mxPoint x="79.80000000000001" as="sourcePoint" />
            <mxPoint x="79.80000000000001" y="80" as="targetPoint" />
          </mxGeometry>
        </mxCell>
        <mxCell id="siom4zf2kln1uITAZIh3-740" value="" style="group" vertex="1" connectable="0" parent="siom4zf2kln1uITAZIh3-710">
          <mxGeometry x="480" y="1" width="80" height="80" as="geometry" />
        </mxCell>
        <mxCell id="siom4zf2kln1uITAZIh3-741" value="" style="endArrow=none;html=1;rounded=0;strokeWidth=5;fillColor=#f8cecc;strokeColor=#FFCCCC;" edge="1" parent="siom4zf2kln1uITAZIh3-740">
          <mxGeometry width="50" height="50" relative="1" as="geometry">
            <mxPoint y="80" as="sourcePoint" />
            <mxPoint x="80" as="targetPoint" />
          </mxGeometry>
        </mxCell>
        <mxCell id="siom4zf2kln1uITAZIh3-742" value="" style="endArrow=none;html=1;rounded=0;strokeWidth=5;fillColor=#f8cecc;strokeColor=#FFCCCC;" edge="1" parent="siom4zf2kln1uITAZIh3-740">
          <mxGeometry width="50" height="50" relative="1" as="geometry">
            <mxPoint as="sourcePoint" />
            <mxPoint x="80" as="targetPoint" />
          </mxGeometry>
        </mxCell>
        <mxCell id="siom4zf2kln1uITAZIh3-743" value="" style="endArrow=none;html=1;rounded=0;strokeWidth=5;fillColor=#f8cecc;strokeColor=#FFCCCC;" edge="1" parent="siom4zf2kln1uITAZIh3-740">
          <mxGeometry width="50" height="50" relative="1" as="geometry">
            <mxPoint x="80" y="80" as="sourcePoint" />
            <mxPoint as="targetPoint" />
          </mxGeometry>
        </mxCell>
        <mxCell id="siom4zf2kln1uITAZIh3-744" value="" style="endArrow=none;html=1;rounded=0;strokeWidth=5;fillColor=#f8cecc;strokeColor=#FFCCCC;" edge="1" parent="siom4zf2kln1uITAZIh3-740">
          <mxGeometry width="50" height="50" relative="1" as="geometry">
            <mxPoint y="80" as="sourcePoint" />
            <mxPoint x="80" y="80" as="targetPoint" />
          </mxGeometry>
        </mxCell>
        <mxCell id="siom4zf2kln1uITAZIh3-745" value="" style="endArrow=none;html=1;rounded=0;strokeWidth=5;fillColor=#f8cecc;strokeColor=#FFCCCC;" edge="1" parent="siom4zf2kln1uITAZIh3-740">
          <mxGeometry width="50" height="50" relative="1" as="geometry">
            <mxPoint x="80" as="sourcePoint" />
            <mxPoint x="80" y="80" as="targetPoint" />
          </mxGeometry>
        </mxCell>
        <mxCell id="siom4zf2kln1uITAZIh3-746" value="" style="endArrow=none;html=1;rounded=0;strokeWidth=5;fillColor=#f8cecc;strokeColor=#FFCCCC;" edge="1" parent="siom4zf2kln1uITAZIh3-740">
          <mxGeometry width="50" height="50" relative="1" as="geometry">
            <mxPoint as="sourcePoint" />
            <mxPoint y="80" as="targetPoint" />
          </mxGeometry>
        </mxCell>
        <mxCell id="siom4zf2kln1uITAZIh3-747" value="" style="group" vertex="1" connectable="0" parent="siom4zf2kln1uITAZIh3-740">
          <mxGeometry width="80" height="80" as="geometry" />
        </mxCell>
        <mxCell id="siom4zf2kln1uITAZIh3-748" value="" style="endArrow=none;html=1;rounded=0;strokeWidth=5;fillColor=#f8cecc;strokeColor=#FFCCCC;" edge="1" parent="siom4zf2kln1uITAZIh3-747">
          <mxGeometry width="50" height="50" relative="1" as="geometry">
            <mxPoint y="80" as="sourcePoint" />
            <mxPoint x="80" as="targetPoint" />
          </mxGeometry>
        </mxCell>
        <mxCell id="siom4zf2kln1uITAZIh3-749" value="" style="endArrow=none;html=1;rounded=0;strokeWidth=5;fillColor=#f8cecc;strokeColor=#FFCCCC;" edge="1" parent="siom4zf2kln1uITAZIh3-747">
          <mxGeometry width="50" height="50" relative="1" as="geometry">
            <mxPoint as="sourcePoint" />
            <mxPoint x="80" as="targetPoint" />
          </mxGeometry>
        </mxCell>
        <mxCell id="siom4zf2kln1uITAZIh3-750" value="" style="endArrow=none;html=1;rounded=0;strokeWidth=5;fillColor=#f8cecc;strokeColor=#FFCCCC;" edge="1" parent="siom4zf2kln1uITAZIh3-747">
          <mxGeometry width="50" height="50" relative="1" as="geometry">
            <mxPoint x="80" y="80" as="sourcePoint" />
            <mxPoint as="targetPoint" />
          </mxGeometry>
        </mxCell>
        <mxCell id="siom4zf2kln1uITAZIh3-751" value="" style="endArrow=none;html=1;rounded=0;strokeWidth=5;fillColor=#f8cecc;strokeColor=#FFCCCC;" edge="1" parent="siom4zf2kln1uITAZIh3-747">
          <mxGeometry width="50" height="50" relative="1" as="geometry">
            <mxPoint y="80" as="sourcePoint" />
            <mxPoint x="80" y="80" as="targetPoint" />
          </mxGeometry>
        </mxCell>
        <mxCell id="siom4zf2kln1uITAZIh3-752" value="" style="endArrow=none;html=1;rounded=0;strokeWidth=5;fillColor=#f8cecc;strokeColor=#FFCCCC;" edge="1" parent="siom4zf2kln1uITAZIh3-747">
          <mxGeometry width="50" height="50" relative="1" as="geometry">
            <mxPoint x="80" as="sourcePoint" />
            <mxPoint x="80" y="80" as="targetPoint" />
          </mxGeometry>
        </mxCell>
        <mxCell id="siom4zf2kln1uITAZIh3-753" value="" style="endArrow=none;html=1;rounded=0;strokeWidth=5;fillColor=#f8cecc;strokeColor=#FFCCCC;" edge="1" parent="siom4zf2kln1uITAZIh3-747">
          <mxGeometry width="50" height="50" relative="1" as="geometry">
            <mxPoint as="sourcePoint" />
            <mxPoint y="80" as="targetPoint" />
          </mxGeometry>
        </mxCell>
        <mxCell id="siom4zf2kln1uITAZIh3-754" value="" style="group" vertex="1" connectable="0" parent="siom4zf2kln1uITAZIh3-747">
          <mxGeometry width="80" height="80" as="geometry" />
        </mxCell>
        <mxCell id="siom4zf2kln1uITAZIh3-755" value="" style="endArrow=open;html=1;rounded=0;exitX=0.5;exitY=1;exitDx=0;exitDy=0;endFill=0;dashed=1;strokeWidth=2;fillColor=#fff2cc;strokeColor=#F21A38;startFill=0;startArrow=none;entryX=0.5;entryY=1;entryDx=0;entryDy=0;gradientColor=#ffd966;" edge="1" parent="siom4zf2kln1uITAZIh3-754">
          <mxGeometry width="50" height="50" relative="1" as="geometry">
            <mxPoint x="80" as="sourcePoint" />
            <mxPoint as="targetPoint" />
          </mxGeometry>
        </mxCell>
        <mxCell id="siom4zf2kln1uITAZIh3-756" value="" style="endArrow=open;html=1;rounded=0;endFill=0;dashed=1;strokeWidth=2;fillColor=#fff2cc;strokeColor=#F21A38;startFill=0;startArrow=none;gradientColor=#ffd966;" edge="1" parent="siom4zf2kln1uITAZIh3-754">
          <mxGeometry width="50" height="50" relative="1" as="geometry">
            <mxPoint x="80" as="sourcePoint" />
            <mxPoint y="80" as="targetPoint" />
          </mxGeometry>
        </mxCell>
        <mxCell id="siom4zf2kln1uITAZIh3-757" value="" style="endArrow=open;html=1;rounded=0;endFill=0;dashed=1;strokeWidth=2;fillColor=#fff2cc;strokeColor=#F21A38;startFill=0;startArrow=none;entryX=0.5;entryY=0;entryDx=0;entryDy=0;gradientColor=#ffd966;" edge="1" parent="siom4zf2kln1uITAZIh3-754">
          <mxGeometry width="50" height="50" relative="1" as="geometry">
            <mxPoint x="79.80000000000001" as="sourcePoint" />
            <mxPoint x="79.80000000000001" y="80" as="targetPoint" />
          </mxGeometry>
        </mxCell>
        <mxCell id="siom4zf2kln1uITAZIh3-758" value="1" style="rounded=1;whiteSpace=wrap;html=1;fillColor=#e1d5e7;strokeColor=#9673a6;fontFamily=Comic Sans MS;sketch=1;curveFitting=1;jiggle=2;fontStyle=1" vertex="1" parent="1">
          <mxGeometry x="180" y="750" width="20" height="20" as="geometry" />
        </mxCell>
        <mxCell id="siom4zf2kln1uITAZIh3-759" value="2" style="rounded=1;whiteSpace=wrap;html=1;fillColor=#e1d5e7;strokeColor=#9673a6;fontFamily=Comic Sans MS;sketch=1;curveFitting=1;jiggle=2;fontStyle=1" vertex="1" parent="1">
          <mxGeometry x="260" y="750" width="20" height="20" as="geometry" />
        </mxCell>
        <mxCell id="siom4zf2kln1uITAZIh3-760" value="&lt;font face=&quot;Comic Sans MS&quot;&gt;0&lt;/font&gt;" style="rounded=1;whiteSpace=wrap;html=1;fillColor=#e1d5e7;strokeColor=#9673a6;sketch=1;curveFitting=1;jiggle=2;fontStyle=1" vertex="1" parent="1">
          <mxGeometry x="180" y="650" width="20" height="20" as="geometry" />
        </mxCell>
        <mxCell id="siom4zf2kln1uITAZIh3-761" value="3" style="rounded=1;whiteSpace=wrap;html=1;fillColor=#e1d5e7;strokeColor=#9673a6;fontFamily=Comic Sans MS;sketch=1;curveFitting=1;jiggle=2;fontStyle=1" vertex="1" parent="1">
          <mxGeometry x="260" y="650" width="20" height="20" as="geometry" />
        </mxCell>
        <mxCell id="siom4zf2kln1uITAZIh3-762" value="1" style="rounded=1;whiteSpace=wrap;html=1;fillColor=#e1d5e7;strokeColor=#9673a6;fontFamily=Comic Sans MS;sketch=1;curveFitting=1;jiggle=2;fontStyle=1" vertex="1" parent="1">
          <mxGeometry x="340" y="750" width="20" height="20" as="geometry" />
        </mxCell>
        <mxCell id="siom4zf2kln1uITAZIh3-763" value="2" style="rounded=1;whiteSpace=wrap;html=1;fillColor=#e1d5e7;strokeColor=#9673a6;fontFamily=Comic Sans MS;sketch=1;curveFitting=1;jiggle=2;fontStyle=1" vertex="1" parent="1">
          <mxGeometry x="420" y="750" width="20" height="20" as="geometry" />
        </mxCell>
        <mxCell id="siom4zf2kln1uITAZIh3-764" value="&lt;font face=&quot;Comic Sans MS&quot;&gt;0&lt;/font&gt;" style="rounded=1;whiteSpace=wrap;html=1;fillColor=#e1d5e7;strokeColor=#9673a6;sketch=1;curveFitting=1;jiggle=2;fontStyle=1" vertex="1" parent="1">
          <mxGeometry x="340" y="650" width="20" height="20" as="geometry" />
        </mxCell>
        <mxCell id="siom4zf2kln1uITAZIh3-765" value="3" style="rounded=1;whiteSpace=wrap;html=1;fillColor=#e1d5e7;strokeColor=#9673a6;fontFamily=Comic Sans MS;sketch=1;curveFitting=1;jiggle=2;fontStyle=1" vertex="1" parent="1">
          <mxGeometry x="420" y="650" width="20" height="20" as="geometry" />
        </mxCell>
        <mxCell id="siom4zf2kln1uITAZIh3-766" value="1" style="rounded=1;whiteSpace=wrap;html=1;fillColor=#e1d5e7;strokeColor=#9673a6;fontFamily=Comic Sans MS;sketch=1;curveFitting=1;jiggle=2;fontStyle=1" vertex="1" parent="1">
          <mxGeometry x="500" y="750" width="20" height="20" as="geometry" />
        </mxCell>
        <mxCell id="siom4zf2kln1uITAZIh3-767" value="2" style="rounded=1;whiteSpace=wrap;html=1;fillColor=#e1d5e7;strokeColor=#9673a6;fontFamily=Comic Sans MS;sketch=1;curveFitting=1;jiggle=2;fontStyle=1" vertex="1" parent="1">
          <mxGeometry x="580" y="750" width="20" height="20" as="geometry" />
        </mxCell>
        <mxCell id="siom4zf2kln1uITAZIh3-768" value="&lt;font face=&quot;Comic Sans MS&quot;&gt;0&lt;/font&gt;" style="rounded=1;whiteSpace=wrap;html=1;fillColor=#e1d5e7;strokeColor=#9673a6;sketch=1;curveFitting=1;jiggle=2;fontStyle=1" vertex="1" parent="1">
          <mxGeometry x="500" y="650" width="20" height="20" as="geometry" />
        </mxCell>
        <mxCell id="siom4zf2kln1uITAZIh3-769" value="3" style="rounded=1;whiteSpace=wrap;html=1;fillColor=#e1d5e7;strokeColor=#9673a6;fontFamily=Comic Sans MS;sketch=1;curveFitting=1;jiggle=2;fontStyle=1" vertex="1" parent="1">
          <mxGeometry x="580" y="650" width="20" height="20" as="geometry" />
        </mxCell>
        <mxCell id="siom4zf2kln1uITAZIh3-770" value="1" style="rounded=1;whiteSpace=wrap;html=1;fillColor=#e1d5e7;strokeColor=#9673a6;fontFamily=Comic Sans MS;sketch=1;curveFitting=1;jiggle=2;fontStyle=1" vertex="1" parent="1">
          <mxGeometry x="660" y="750" width="20" height="20" as="geometry" />
        </mxCell>
        <mxCell id="siom4zf2kln1uITAZIh3-771" value="2" style="rounded=1;whiteSpace=wrap;html=1;fillColor=#e1d5e7;strokeColor=#9673a6;fontFamily=Comic Sans MS;sketch=1;curveFitting=1;jiggle=2;fontStyle=1" vertex="1" parent="1">
          <mxGeometry x="740" y="750" width="20" height="20" as="geometry" />
        </mxCell>
        <mxCell id="siom4zf2kln1uITAZIh3-772" value="&lt;font face=&quot;Comic Sans MS&quot;&gt;0&lt;/font&gt;" style="rounded=1;whiteSpace=wrap;html=1;fillColor=#e1d5e7;strokeColor=#9673a6;sketch=1;curveFitting=1;jiggle=2;fontStyle=1" vertex="1" parent="1">
          <mxGeometry x="660" y="650" width="20" height="20" as="geometry" />
        </mxCell>
        <mxCell id="siom4zf2kln1uITAZIh3-773" value="3" style="rounded=1;whiteSpace=wrap;html=1;fillColor=#e1d5e7;strokeColor=#9673a6;fontFamily=Comic Sans MS;sketch=1;curveFitting=1;jiggle=2;fontStyle=1" vertex="1" parent="1">
          <mxGeometry x="740" y="650" width="20" height="20" as="geometry" />
        </mxCell>
        <mxCell id="siom4zf2kln1uITAZIh3-774" value="" style="endArrow=none;html=1;rounded=0;strokeWidth=9;fillColor=#b1ddf0;strokeColor=light-dark(#cce6ff, #babdc0);" edge="1" parent="1">
          <mxGeometry width="50" height="50" relative="1" as="geometry">
            <mxPoint x="150" y="630" as="sourcePoint" />
            <mxPoint x="790" y="630" as="targetPoint" />
          </mxGeometry>
        </mxCell>
        <mxCell id="siom4zf2kln1uITAZIh3-775" value="" style="endArrow=none;html=1;rounded=0;strokeWidth=9;fillColor=#b1ddf0;strokeColor=light-dark(#cce6ff, #babdc0);" edge="1" parent="1">
          <mxGeometry width="50" height="50" relative="1" as="geometry">
            <mxPoint x="390" y="710" as="sourcePoint" />
            <mxPoint x="390" y="630" as="targetPoint" />
          </mxGeometry>
        </mxCell>
        <mxCell id="siom4zf2kln1uITAZIh3-776" value="" style="endArrow=none;html=1;rounded=0;fontStyle=0;strokeWidth=9;fillColor=#b1ddf0;strokeColor=light-dark(#cce6ff, #babdc0);" edge="1" parent="1">
          <mxGeometry width="50" height="50" relative="1" as="geometry">
            <mxPoint x="550" y="710" as="sourcePoint" />
            <mxPoint x="550" y="630" as="targetPoint" />
          </mxGeometry>
        </mxCell>
        <mxCell id="siom4zf2kln1uITAZIh3-777" value="" style="endArrow=none;html=1;rounded=0;strokeWidth=9;fillColor=#b1ddf0;strokeColor=light-dark(#cce6ff, #babdc0);" edge="1" parent="1">
          <mxGeometry width="50" height="50" relative="1" as="geometry">
            <mxPoint x="710" y="710" as="sourcePoint" />
            <mxPoint x="710" y="630" as="targetPoint" />
          </mxGeometry>
        </mxCell>
        <mxCell id="siom4zf2kln1uITAZIh3-778" value="" style="group" vertex="1" connectable="0" parent="1">
          <mxGeometry x="190" y="269" width="560" height="81" as="geometry" />
        </mxCell>
        <mxCell id="siom4zf2kln1uITAZIh3-779" value="" style="group" vertex="1" connectable="0" parent="siom4zf2kln1uITAZIh3-778">
          <mxGeometry width="80" height="80" as="geometry" />
        </mxCell>
        <mxCell id="siom4zf2kln1uITAZIh3-780" value="" style="endArrow=none;html=1;rounded=0;strokeWidth=5;fillColor=#f8cecc;strokeColor=#FFCCCC;" edge="1" parent="siom4zf2kln1uITAZIh3-779">
          <mxGeometry width="50" height="50" relative="1" as="geometry">
            <mxPoint y="80" as="sourcePoint" />
            <mxPoint x="80" as="targetPoint" />
          </mxGeometry>
        </mxCell>
        <mxCell id="siom4zf2kln1uITAZIh3-781" value="" style="endArrow=none;html=1;rounded=0;strokeWidth=5;fillColor=#f8cecc;strokeColor=#FFCCCC;" edge="1" parent="siom4zf2kln1uITAZIh3-779">
          <mxGeometry width="50" height="50" relative="1" as="geometry">
            <mxPoint as="sourcePoint" />
            <mxPoint x="80" as="targetPoint" />
          </mxGeometry>
        </mxCell>
        <mxCell id="siom4zf2kln1uITAZIh3-782" value="" style="endArrow=none;html=1;rounded=0;strokeWidth=5;fillColor=#f8cecc;strokeColor=#FFCCCC;" edge="1" parent="siom4zf2kln1uITAZIh3-779">
          <mxGeometry width="50" height="50" relative="1" as="geometry">
            <mxPoint x="80" y="80" as="sourcePoint" />
            <mxPoint as="targetPoint" />
          </mxGeometry>
        </mxCell>
        <mxCell id="siom4zf2kln1uITAZIh3-783" value="" style="endArrow=none;html=1;rounded=0;strokeWidth=5;fillColor=#f8cecc;strokeColor=#FFCCCC;" edge="1" parent="siom4zf2kln1uITAZIh3-779">
          <mxGeometry width="50" height="50" relative="1" as="geometry">
            <mxPoint y="80" as="sourcePoint" />
            <mxPoint x="80" y="80" as="targetPoint" />
          </mxGeometry>
        </mxCell>
        <mxCell id="siom4zf2kln1uITAZIh3-784" value="" style="endArrow=none;html=1;rounded=0;strokeWidth=5;fillColor=#f8cecc;strokeColor=#FFCCCC;" edge="1" parent="siom4zf2kln1uITAZIh3-779">
          <mxGeometry width="50" height="50" relative="1" as="geometry">
            <mxPoint x="80" as="sourcePoint" />
            <mxPoint x="80" y="80" as="targetPoint" />
          </mxGeometry>
        </mxCell>
        <mxCell id="siom4zf2kln1uITAZIh3-785" value="" style="endArrow=none;html=1;rounded=0;strokeWidth=5;fillColor=#f8cecc;strokeColor=#FFCCCC;" edge="1" parent="siom4zf2kln1uITAZIh3-779">
          <mxGeometry width="50" height="50" relative="1" as="geometry">
            <mxPoint as="sourcePoint" />
            <mxPoint y="80" as="targetPoint" />
          </mxGeometry>
        </mxCell>
        <mxCell id="siom4zf2kln1uITAZIh3-786" value="" style="group" vertex="1" connectable="0" parent="siom4zf2kln1uITAZIh3-778">
          <mxGeometry x="160" y="1" width="80" height="80" as="geometry" />
        </mxCell>
        <mxCell id="siom4zf2kln1uITAZIh3-787" value="" style="endArrow=none;html=1;rounded=0;strokeWidth=5;fillColor=#f8cecc;strokeColor=#FFCCCC;" edge="1" parent="siom4zf2kln1uITAZIh3-786">
          <mxGeometry width="50" height="50" relative="1" as="geometry">
            <mxPoint y="80" as="sourcePoint" />
            <mxPoint x="80" as="targetPoint" />
          </mxGeometry>
        </mxCell>
        <mxCell id="siom4zf2kln1uITAZIh3-788" value="" style="endArrow=none;html=1;rounded=0;strokeWidth=5;fillColor=#f8cecc;strokeColor=#FFCCCC;" edge="1" parent="siom4zf2kln1uITAZIh3-786">
          <mxGeometry width="50" height="50" relative="1" as="geometry">
            <mxPoint as="sourcePoint" />
            <mxPoint x="80" as="targetPoint" />
          </mxGeometry>
        </mxCell>
        <mxCell id="siom4zf2kln1uITAZIh3-789" value="" style="endArrow=none;html=1;rounded=0;strokeWidth=5;fillColor=#f8cecc;strokeColor=#FFCCCC;" edge="1" parent="siom4zf2kln1uITAZIh3-786">
          <mxGeometry width="50" height="50" relative="1" as="geometry">
            <mxPoint x="80" y="80" as="sourcePoint" />
            <mxPoint as="targetPoint" />
          </mxGeometry>
        </mxCell>
        <mxCell id="siom4zf2kln1uITAZIh3-790" value="" style="endArrow=none;html=1;rounded=0;strokeWidth=5;fillColor=#f8cecc;strokeColor=#FFCCCC;" edge="1" parent="siom4zf2kln1uITAZIh3-786">
          <mxGeometry width="50" height="50" relative="1" as="geometry">
            <mxPoint y="80" as="sourcePoint" />
            <mxPoint x="80" y="80" as="targetPoint" />
          </mxGeometry>
        </mxCell>
        <mxCell id="siom4zf2kln1uITAZIh3-791" value="" style="endArrow=none;html=1;rounded=0;strokeWidth=5;fillColor=#f8cecc;strokeColor=#FFCCCC;" edge="1" parent="siom4zf2kln1uITAZIh3-786">
          <mxGeometry width="50" height="50" relative="1" as="geometry">
            <mxPoint x="80" as="sourcePoint" />
            <mxPoint x="80" y="80" as="targetPoint" />
          </mxGeometry>
        </mxCell>
        <mxCell id="siom4zf2kln1uITAZIh3-792" value="" style="endArrow=none;html=1;rounded=0;strokeWidth=5;fillColor=#f8cecc;strokeColor=#FFCCCC;" edge="1" parent="siom4zf2kln1uITAZIh3-786">
          <mxGeometry width="50" height="50" relative="1" as="geometry">
            <mxPoint as="sourcePoint" />
            <mxPoint y="80" as="targetPoint" />
          </mxGeometry>
        </mxCell>
        <mxCell id="siom4zf2kln1uITAZIh3-793" value="" style="endArrow=open;html=1;rounded=0;entryX=0.5;entryY=0;entryDx=0;entryDy=0;exitX=0.5;exitY=1;exitDx=0;exitDy=0;endFill=0;dashed=1;strokeWidth=2;fillColor=#e51400;strokeColor=light-dark(#f21a37, #ffacac);" edge="1" parent="siom4zf2kln1uITAZIh3-786">
          <mxGeometry width="50" height="50" relative="1" as="geometry">
            <mxPoint as="sourcePoint" />
            <mxPoint y="80" as="targetPoint" />
          </mxGeometry>
        </mxCell>
        <mxCell id="siom4zf2kln1uITAZIh3-794" value="" style="endArrow=open;html=1;rounded=0;entryX=0.5;entryY=0;entryDx=0;entryDy=0;exitX=0.5;exitY=0;exitDx=0;exitDy=0;endFill=0;dashed=1;strokeWidth=2;fillColor=#e51400;strokeColor=light-dark(#f21a37, #ffacac);" edge="1" parent="siom4zf2kln1uITAZIh3-786">
          <mxGeometry width="50" height="50" relative="1" as="geometry">
            <mxPoint y="80" as="sourcePoint" />
            <mxPoint x="80" y="80" as="targetPoint" />
          </mxGeometry>
        </mxCell>
        <mxCell id="siom4zf2kln1uITAZIh3-795" value="" style="endArrow=open;html=1;rounded=0;entryX=0.5;entryY=1;entryDx=0;entryDy=0;exitX=0.5;exitY=0;exitDx=0;exitDy=0;endFill=0;dashed=1;strokeWidth=2;fillColor=#e51400;strokeColor=light-dark(#f21a37, #ffacac);" edge="1" parent="siom4zf2kln1uITAZIh3-786">
          <mxGeometry width="50" height="50" relative="1" as="geometry">
            <mxPoint x="80" y="80" as="sourcePoint" />
            <mxPoint x="80" as="targetPoint" />
          </mxGeometry>
        </mxCell>
        <mxCell id="siom4zf2kln1uITAZIh3-796" value="" style="group" vertex="1" connectable="0" parent="siom4zf2kln1uITAZIh3-778">
          <mxGeometry x="320" y="1" width="80" height="80" as="geometry" />
        </mxCell>
        <mxCell id="siom4zf2kln1uITAZIh3-797" value="" style="endArrow=none;html=1;rounded=0;strokeWidth=5;fillColor=#f8cecc;strokeColor=#FFCCCC;" edge="1" parent="siom4zf2kln1uITAZIh3-796">
          <mxGeometry width="50" height="50" relative="1" as="geometry">
            <mxPoint y="80" as="sourcePoint" />
            <mxPoint x="80" as="targetPoint" />
          </mxGeometry>
        </mxCell>
        <mxCell id="siom4zf2kln1uITAZIh3-798" value="" style="endArrow=none;html=1;rounded=0;strokeWidth=5;fillColor=#f8cecc;strokeColor=#FFCCCC;" edge="1" parent="siom4zf2kln1uITAZIh3-796">
          <mxGeometry width="50" height="50" relative="1" as="geometry">
            <mxPoint as="sourcePoint" />
            <mxPoint x="80" as="targetPoint" />
          </mxGeometry>
        </mxCell>
        <mxCell id="siom4zf2kln1uITAZIh3-799" value="" style="endArrow=none;html=1;rounded=0;strokeWidth=5;fillColor=#f8cecc;strokeColor=#FFCCCC;" edge="1" parent="siom4zf2kln1uITAZIh3-796">
          <mxGeometry width="50" height="50" relative="1" as="geometry">
            <mxPoint x="80" y="80" as="sourcePoint" />
            <mxPoint as="targetPoint" />
          </mxGeometry>
        </mxCell>
        <mxCell id="siom4zf2kln1uITAZIh3-800" value="" style="endArrow=none;html=1;rounded=0;strokeWidth=5;fillColor=#f8cecc;strokeColor=#FFCCCC;" edge="1" parent="siom4zf2kln1uITAZIh3-796">
          <mxGeometry width="50" height="50" relative="1" as="geometry">
            <mxPoint y="80" as="sourcePoint" />
            <mxPoint x="80" y="80" as="targetPoint" />
          </mxGeometry>
        </mxCell>
        <mxCell id="siom4zf2kln1uITAZIh3-801" value="" style="endArrow=none;html=1;rounded=0;strokeWidth=5;fillColor=#f8cecc;strokeColor=#FFCCCC;" edge="1" parent="siom4zf2kln1uITAZIh3-796">
          <mxGeometry width="50" height="50" relative="1" as="geometry">
            <mxPoint x="80" as="sourcePoint" />
            <mxPoint x="80" y="80" as="targetPoint" />
          </mxGeometry>
        </mxCell>
        <mxCell id="siom4zf2kln1uITAZIh3-802" value="" style="endArrow=none;html=1;rounded=0;strokeWidth=5;fillColor=#f8cecc;strokeColor=#FFCCCC;" edge="1" parent="siom4zf2kln1uITAZIh3-796">
          <mxGeometry width="50" height="50" relative="1" as="geometry">
            <mxPoint as="sourcePoint" />
            <mxPoint y="80" as="targetPoint" />
          </mxGeometry>
        </mxCell>
        <mxCell id="siom4zf2kln1uITAZIh3-803" value="" style="endArrow=open;html=1;rounded=0;entryX=0.5;entryY=0;entryDx=0;entryDy=0;exitX=0.5;exitY=1;exitDx=0;exitDy=0;endFill=0;dashed=1;strokeWidth=2;fillColor=#e51400;strokeColor=light-dark(#f21a37, #ffacac);fontStyle=1" edge="1" parent="siom4zf2kln1uITAZIh3-796">
          <mxGeometry width="50" height="50" relative="1" as="geometry">
            <mxPoint x="-0.5699999999999363" as="sourcePoint" />
            <mxPoint x="-0.5699999999999363" y="80" as="targetPoint" />
          </mxGeometry>
        </mxCell>
        <mxCell id="siom4zf2kln1uITAZIh3-804" value="" style="endArrow=open;html=1;rounded=0;entryX=0.5;entryY=0;entryDx=0;entryDy=0;exitX=0.5;exitY=0;exitDx=0;exitDy=0;endFill=0;dashed=1;strokeWidth=2;fillColor=#e51400;strokeColor=light-dark(#f21a37, #ffacac);fontStyle=1" edge="1" parent="siom4zf2kln1uITAZIh3-796">
          <mxGeometry width="50" height="50" relative="1" as="geometry">
            <mxPoint x="-0.5699999999999363" y="80" as="sourcePoint" />
            <mxPoint x="79.43000000000006" y="80" as="targetPoint" />
          </mxGeometry>
        </mxCell>
        <mxCell id="siom4zf2kln1uITAZIh3-805" value="" style="endArrow=open;html=1;rounded=0;entryX=0.5;entryY=1;entryDx=0;entryDy=0;exitX=0.5;exitY=0;exitDx=0;exitDy=0;endFill=0;dashed=1;strokeWidth=2;fillColor=#e51400;strokeColor=light-dark(#f21a37, #ffacac);fontStyle=1" edge="1" parent="siom4zf2kln1uITAZIh3-796">
          <mxGeometry width="50" height="50" relative="1" as="geometry">
            <mxPoint x="79.43000000000006" y="80" as="sourcePoint" />
            <mxPoint x="79.43000000000006" as="targetPoint" />
          </mxGeometry>
        </mxCell>
        <mxCell id="siom4zf2kln1uITAZIh3-806" value="" style="group" vertex="1" connectable="0" parent="siom4zf2kln1uITAZIh3-778">
          <mxGeometry x="480" y="1" width="80" height="80" as="geometry" />
        </mxCell>
        <mxCell id="siom4zf2kln1uITAZIh3-807" value="" style="endArrow=none;html=1;rounded=0;strokeWidth=5;fillColor=#f8cecc;strokeColor=#FFCCCC;" edge="1" parent="siom4zf2kln1uITAZIh3-806">
          <mxGeometry width="50" height="50" relative="1" as="geometry">
            <mxPoint y="80" as="sourcePoint" />
            <mxPoint x="80" as="targetPoint" />
          </mxGeometry>
        </mxCell>
        <mxCell id="siom4zf2kln1uITAZIh3-808" value="" style="endArrow=none;html=1;rounded=0;strokeWidth=5;fillColor=#f8cecc;strokeColor=#FFCCCC;" edge="1" parent="siom4zf2kln1uITAZIh3-806">
          <mxGeometry width="50" height="50" relative="1" as="geometry">
            <mxPoint as="sourcePoint" />
            <mxPoint x="80" as="targetPoint" />
          </mxGeometry>
        </mxCell>
        <mxCell id="siom4zf2kln1uITAZIh3-809" value="" style="endArrow=none;html=1;rounded=0;strokeWidth=5;fillColor=#f8cecc;strokeColor=#FFCCCC;" edge="1" parent="siom4zf2kln1uITAZIh3-806">
          <mxGeometry width="50" height="50" relative="1" as="geometry">
            <mxPoint x="80" y="80" as="sourcePoint" />
            <mxPoint as="targetPoint" />
          </mxGeometry>
        </mxCell>
        <mxCell id="siom4zf2kln1uITAZIh3-810" value="" style="endArrow=none;html=1;rounded=0;strokeWidth=5;fillColor=#f8cecc;strokeColor=#FFCCCC;" edge="1" parent="siom4zf2kln1uITAZIh3-806">
          <mxGeometry width="50" height="50" relative="1" as="geometry">
            <mxPoint y="80" as="sourcePoint" />
            <mxPoint x="80" y="80" as="targetPoint" />
          </mxGeometry>
        </mxCell>
        <mxCell id="siom4zf2kln1uITAZIh3-811" value="" style="endArrow=none;html=1;rounded=0;strokeWidth=5;fillColor=#f8cecc;strokeColor=#FFCCCC;" edge="1" parent="siom4zf2kln1uITAZIh3-806">
          <mxGeometry width="50" height="50" relative="1" as="geometry">
            <mxPoint x="80" as="sourcePoint" />
            <mxPoint x="80" y="80" as="targetPoint" />
          </mxGeometry>
        </mxCell>
        <mxCell id="siom4zf2kln1uITAZIh3-812" value="" style="endArrow=none;html=1;rounded=0;strokeWidth=5;fillColor=#f8cecc;strokeColor=#FFCCCC;" edge="1" parent="siom4zf2kln1uITAZIh3-806">
          <mxGeometry width="50" height="50" relative="1" as="geometry">
            <mxPoint as="sourcePoint" />
            <mxPoint y="80" as="targetPoint" />
          </mxGeometry>
        </mxCell>
        <mxCell id="siom4zf2kln1uITAZIh3-813" value="1" style="rounded=1;whiteSpace=wrap;html=1;fillColor=#e1d5e7;strokeColor=#9673a6;fontFamily=Comic Sans MS;sketch=1;curveFitting=1;jiggle=2;fontStyle=1" vertex="1" parent="1">
          <mxGeometry x="180" y="350" width="20" height="20" as="geometry" />
        </mxCell>
        <mxCell id="siom4zf2kln1uITAZIh3-814" value="2" style="rounded=1;whiteSpace=wrap;html=1;fillColor=#e1d5e7;strokeColor=#9673a6;fontFamily=Comic Sans MS;sketch=1;curveFitting=1;jiggle=2;fontStyle=1" vertex="1" parent="1">
          <mxGeometry x="260" y="350" width="20" height="20" as="geometry" />
        </mxCell>
        <mxCell id="siom4zf2kln1uITAZIh3-815" value="&lt;font face=&quot;Comic Sans MS&quot;&gt;0&lt;/font&gt;" style="rounded=1;whiteSpace=wrap;html=1;fillColor=#e1d5e7;strokeColor=#9673a6;sketch=1;curveFitting=1;jiggle=2;fontStyle=1" vertex="1" parent="1">
          <mxGeometry x="180" y="250" width="20" height="20" as="geometry" />
        </mxCell>
        <mxCell id="siom4zf2kln1uITAZIh3-816" value="3" style="rounded=1;whiteSpace=wrap;html=1;fillColor=#e1d5e7;strokeColor=#9673a6;fontFamily=Comic Sans MS;sketch=1;curveFitting=1;jiggle=2;fontStyle=1" vertex="1" parent="1">
          <mxGeometry x="260" y="250" width="20" height="20" as="geometry" />
        </mxCell>
        <mxCell id="siom4zf2kln1uITAZIh3-817" value="1" style="rounded=1;whiteSpace=wrap;html=1;fillColor=#e1d5e7;strokeColor=#9673a6;fontFamily=Comic Sans MS;sketch=1;curveFitting=1;jiggle=2;fontStyle=1" vertex="1" parent="1">
          <mxGeometry x="340" y="350" width="20" height="20" as="geometry" />
        </mxCell>
        <mxCell id="siom4zf2kln1uITAZIh3-818" value="2" style="rounded=1;whiteSpace=wrap;html=1;fillColor=#e1d5e7;strokeColor=#9673a6;fontFamily=Comic Sans MS;sketch=1;curveFitting=1;jiggle=2;fontStyle=1" vertex="1" parent="1">
          <mxGeometry x="420" y="350" width="20" height="20" as="geometry" />
        </mxCell>
        <mxCell id="siom4zf2kln1uITAZIh3-819" value="&lt;font face=&quot;Comic Sans MS&quot;&gt;0&lt;/font&gt;" style="rounded=1;whiteSpace=wrap;html=1;fillColor=#e1d5e7;strokeColor=#9673a6;sketch=1;curveFitting=1;jiggle=2;fontStyle=1" vertex="1" parent="1">
          <mxGeometry x="340" y="250" width="20" height="20" as="geometry" />
        </mxCell>
        <mxCell id="siom4zf2kln1uITAZIh3-820" value="3" style="rounded=1;whiteSpace=wrap;html=1;fillColor=#e1d5e7;strokeColor=#9673a6;fontFamily=Comic Sans MS;sketch=1;curveFitting=1;jiggle=2;fontStyle=1" vertex="1" parent="1">
          <mxGeometry x="420" y="250" width="20" height="20" as="geometry" />
        </mxCell>
        <mxCell id="siom4zf2kln1uITAZIh3-821" value="1" style="rounded=1;whiteSpace=wrap;html=1;fillColor=#e1d5e7;strokeColor=#9673a6;fontFamily=Comic Sans MS;sketch=1;curveFitting=1;jiggle=2;fontStyle=1" vertex="1" parent="1">
          <mxGeometry x="500" y="350" width="20" height="20" as="geometry" />
        </mxCell>
        <mxCell id="siom4zf2kln1uITAZIh3-822" value="2" style="rounded=1;whiteSpace=wrap;html=1;fillColor=#e1d5e7;strokeColor=#9673a6;fontFamily=Comic Sans MS;sketch=1;curveFitting=1;jiggle=2;fontStyle=1" vertex="1" parent="1">
          <mxGeometry x="580" y="350" width="20" height="20" as="geometry" />
        </mxCell>
        <mxCell id="siom4zf2kln1uITAZIh3-823" value="&lt;font face=&quot;Comic Sans MS&quot;&gt;0&lt;/font&gt;" style="rounded=1;whiteSpace=wrap;html=1;fillColor=#e1d5e7;strokeColor=#9673a6;sketch=1;curveFitting=1;jiggle=2;fontStyle=1" vertex="1" parent="1">
          <mxGeometry x="500" y="250" width="20" height="20" as="geometry" />
        </mxCell>
        <mxCell id="siom4zf2kln1uITAZIh3-824" value="3" style="rounded=1;whiteSpace=wrap;html=1;fillColor=#e1d5e7;strokeColor=#9673a6;fontFamily=Comic Sans MS;sketch=1;curveFitting=1;jiggle=2;fontStyle=1" vertex="1" parent="1">
          <mxGeometry x="580" y="250" width="20" height="20" as="geometry" />
        </mxCell>
        <mxCell id="siom4zf2kln1uITAZIh3-825" value="1" style="rounded=1;whiteSpace=wrap;html=1;fillColor=#e1d5e7;strokeColor=#9673a6;fontFamily=Comic Sans MS;sketch=1;curveFitting=1;jiggle=2;fontStyle=1" vertex="1" parent="1">
          <mxGeometry x="660" y="350" width="20" height="20" as="geometry" />
        </mxCell>
        <mxCell id="siom4zf2kln1uITAZIh3-826" value="2" style="rounded=1;whiteSpace=wrap;html=1;fillColor=#e1d5e7;strokeColor=#9673a6;fontFamily=Comic Sans MS;sketch=1;curveFitting=1;jiggle=2;fontStyle=1" vertex="1" parent="1">
          <mxGeometry x="740" y="350" width="20" height="20" as="geometry" />
        </mxCell>
        <mxCell id="siom4zf2kln1uITAZIh3-827" value="&lt;font face=&quot;Comic Sans MS&quot;&gt;0&lt;/font&gt;" style="rounded=1;whiteSpace=wrap;html=1;fillColor=#e1d5e7;strokeColor=#9673a6;sketch=1;curveFitting=1;jiggle=2;fontStyle=1" vertex="1" parent="1">
          <mxGeometry x="660" y="250" width="20" height="20" as="geometry" />
        </mxCell>
        <mxCell id="siom4zf2kln1uITAZIh3-828" value="3" style="rounded=1;whiteSpace=wrap;html=1;fillColor=#e1d5e7;strokeColor=#9673a6;fontFamily=Comic Sans MS;sketch=1;curveFitting=1;jiggle=2;fontStyle=1" vertex="1" parent="1">
          <mxGeometry x="740" y="250" width="20" height="20" as="geometry" />
        </mxCell>
        <mxCell id="siom4zf2kln1uITAZIh3-829" value="" style="endArrow=none;html=1;rounded=0;strokeWidth=9;fillColor=#b1ddf0;strokeColor=light-dark(#cce6ff, #babdc0);" edge="1" parent="1">
          <mxGeometry width="50" height="50" relative="1" as="geometry">
            <mxPoint x="150" y="230" as="sourcePoint" />
            <mxPoint x="790" y="230" as="targetPoint" />
          </mxGeometry>
        </mxCell>
        <mxCell id="siom4zf2kln1uITAZIh3-830" value="" style="endArrow=none;html=1;rounded=0;strokeWidth=9;fillColor=#b1ddf0;strokeColor=light-dark(#cce6ff, #babdc0);" edge="1" parent="1">
          <mxGeometry width="50" height="50" relative="1" as="geometry">
            <mxPoint x="230" y="310" as="sourcePoint" />
            <mxPoint x="230" y="230" as="targetPoint" />
          </mxGeometry>
        </mxCell>
        <mxCell id="siom4zf2kln1uITAZIh3-831" value="" style="endArrow=none;html=1;rounded=0;strokeWidth=9;fillColor=#b1ddf0;strokeColor=light-dark(#cce6ff, #babdc0);" edge="1" parent="1">
          <mxGeometry width="50" height="50" relative="1" as="geometry">
            <mxPoint x="390" y="310" as="sourcePoint" />
            <mxPoint x="390" y="230" as="targetPoint" />
          </mxGeometry>
        </mxCell>
        <mxCell id="siom4zf2kln1uITAZIh3-832" value="" style="endArrow=none;html=1;rounded=0;fontStyle=0;strokeWidth=9;fillColor=#b1ddf0;strokeColor=light-dark(#cce6ff, #babdc0);" edge="1" parent="1">
          <mxGeometry width="50" height="50" relative="1" as="geometry">
            <mxPoint x="550" y="310" as="sourcePoint" />
            <mxPoint x="550" y="230" as="targetPoint" />
          </mxGeometry>
        </mxCell>
        <mxCell id="siom4zf2kln1uITAZIh3-833" value="" style="endArrow=none;html=1;rounded=0;strokeWidth=9;fillColor=#b1ddf0;strokeColor=light-dark(#cce6ff, #babdc0);" edge="1" parent="1">
          <mxGeometry width="50" height="50" relative="1" as="geometry">
            <mxPoint x="710" y="310" as="sourcePoint" />
            <mxPoint x="710" y="230" as="targetPoint" />
          </mxGeometry>
        </mxCell>
        <mxCell id="siom4zf2kln1uITAZIh3-834" value="" style="group" vertex="1" connectable="0" parent="1">
          <mxGeometry x="190" y="270" width="80" height="80" as="geometry" />
        </mxCell>
        <mxCell id="siom4zf2kln1uITAZIh3-835" value="" style="endArrow=open;html=1;rounded=0;entryX=0.5;entryY=0;entryDx=0;entryDy=0;exitX=0.5;exitY=1;exitDx=0;exitDy=0;endFill=0;dashed=1;strokeWidth=2;fillColor=#e51400;strokeColor=light-dark(#f21a37, #ffacac);" edge="1" parent="siom4zf2kln1uITAZIh3-834">
          <mxGeometry width="50" height="50" relative="1" as="geometry">
            <mxPoint as="sourcePoint" />
            <mxPoint y="80" as="targetPoint" />
          </mxGeometry>
        </mxCell>
        <mxCell id="siom4zf2kln1uITAZIh3-836" value="" style="endArrow=open;html=1;rounded=0;entryX=0.5;entryY=0;entryDx=0;entryDy=0;exitX=0.5;exitY=0;exitDx=0;exitDy=0;endFill=0;dashed=1;strokeWidth=2;fillColor=#e51400;strokeColor=light-dark(#f21a37, #ffacac);" edge="1" parent="siom4zf2kln1uITAZIh3-834">
          <mxGeometry width="50" height="50" relative="1" as="geometry">
            <mxPoint y="80" as="sourcePoint" />
            <mxPoint x="80" y="80" as="targetPoint" />
          </mxGeometry>
        </mxCell>
        <mxCell id="siom4zf2kln1uITAZIh3-837" value="" style="endArrow=open;html=1;rounded=0;entryX=0.5;entryY=1;entryDx=0;entryDy=0;exitX=0.5;exitY=0;exitDx=0;exitDy=0;endFill=0;dashed=1;strokeWidth=2;fillColor=#e51400;strokeColor=light-dark(#f21a37, #ffacac);" edge="1" parent="siom4zf2kln1uITAZIh3-834">
          <mxGeometry width="50" height="50" relative="1" as="geometry">
            <mxPoint x="80" y="80" as="sourcePoint" />
            <mxPoint x="80" as="targetPoint" />
          </mxGeometry>
        </mxCell>
        <mxCell id="siom4zf2kln1uITAZIh3-838" value="" style="group" vertex="1" connectable="0" parent="1">
          <mxGeometry x="190" y="670" width="80" height="80" as="geometry" />
        </mxCell>
        <mxCell id="siom4zf2kln1uITAZIh3-839" value="" style="endArrow=open;html=1;rounded=0;exitX=0.5;exitY=1;exitDx=0;exitDy=0;endFill=0;dashed=1;strokeWidth=2;fillColor=#fff2cc;strokeColor=#F21A38;startFill=0;startArrow=none;entryX=0.5;entryY=1;entryDx=0;entryDy=0;gradientColor=#ffd966;" edge="1" parent="siom4zf2kln1uITAZIh3-838">
          <mxGeometry width="50" height="50" relative="1" as="geometry">
            <mxPoint x="80" as="sourcePoint" />
            <mxPoint as="targetPoint" />
          </mxGeometry>
        </mxCell>
        <mxCell id="siom4zf2kln1uITAZIh3-840" value="" style="endArrow=open;html=1;rounded=0;endFill=0;dashed=1;strokeWidth=2;fillColor=#fff2cc;strokeColor=#F21A38;startFill=0;startArrow=none;gradientColor=#ffd966;" edge="1" parent="siom4zf2kln1uITAZIh3-838">
          <mxGeometry width="50" height="50" relative="1" as="geometry">
            <mxPoint x="80" as="sourcePoint" />
            <mxPoint y="80" as="targetPoint" />
          </mxGeometry>
        </mxCell>
        <mxCell id="siom4zf2kln1uITAZIh3-841" value="" style="endArrow=open;html=1;rounded=0;endFill=0;dashed=1;strokeWidth=2;fillColor=#fff2cc;strokeColor=#F21A38;startFill=0;startArrow=none;entryX=0.5;entryY=0;entryDx=0;entryDy=0;gradientColor=#ffd966;" edge="1" parent="siom4zf2kln1uITAZIh3-838">
          <mxGeometry width="50" height="50" relative="1" as="geometry">
            <mxPoint x="79.80000000000001" as="sourcePoint" />
            <mxPoint x="79.80000000000001" y="80" as="targetPoint" />
          </mxGeometry>
        </mxCell>
        <mxCell id="siom4zf2kln1uITAZIh3-842" value="" style="endArrow=none;html=1;rounded=0;strokeWidth=9;fillColor=#b1ddf0;strokeColor=light-dark(#cce6ff, #babdc0);" edge="1" parent="1">
          <mxGeometry width="50" height="50" relative="1" as="geometry">
            <mxPoint x="229.71000000000004" y="710" as="sourcePoint" />
            <mxPoint x="229.71000000000004" y="630" as="targetPoint" />
          </mxGeometry>
        </mxCell>
      </root>
    </mxGraphModel>
  </diagram>
</mxfile>
